<svg version="1.1" viewBox="0.0 0.0 672.0 672.0" fill="none" stroke="none" stroke-linecap="square" stroke-miterlimit="10" xmlns:xlink="http://www.w3.org/1999/xlink" xmlns="http://www.w3.org/2000/svg"><clipPath id="p.0"><path d="m0 0l672.0 0l0 672.0l-672.0 0l0 -672.0z" clip-rule="nonzero"/></clipPath><g clip-path="url(#p.0)"><path fill="#000000" fill-opacity="0.0" d="m0 0l672.0 0l0 672.0l-672.0 0z" fill-rule="evenodd"/><path fill="#000000" fill-opacity="0.0" d="m163.81102 3.1023622l344.37793 0l0 665.7953l-344.37793 0z" fill-rule="evenodd"/><path fill="#13293d" d="m309.3423 529.4305q-25.59375 0 -44.796875 -8.0q-19.20314 -8.0 -32.54689 -19.734375q-13.328125 -11.734375 -21.328125 -22.65625q-8.0 -10.9375 -11.1875 -17.34375l36.265625 -37.859375q9.0625 12.265625 18.65625 23.734375q9.60939 11.46875 22.67189 18.671875q13.0625 7.1875 32.265625 7.1875q29.859375 0 46.921875 -20.0q17.078125 -20.0 17.078125 -48.265625l0 -201.0625l-68.265625 0l0 -53.328125l183.46875 0l0 53.328125l-57.609375 0l0 206.40625q0 30.390625 -14.140625 57.59375q-14.125 27.203125 -41.328125 44.265625q-27.1875 17.0625 -66.125 17.0625z" fill-rule="nonzero"/><path fill="#13293d" d="m194.3937 176.63518l0 0c0 -22.891556 18.557266 -41.448822 41.448807 -41.448822l0 0c10.99292 0 21.535599 4.366913 29.308762 12.140076c7.7731323 7.773163 12.140076 18.315826 12.140076 29.308746l0 0c0 22.89154 -18.557281 41.448807 -41.448837 41.448807l0 0c-22.89154 0 -41.448807 -18.557266 -41.448807 -41.448807z" fill-rule="evenodd"/></g></svg>